<svg xmlns="http://www.w3.org/2000/svg" viewBox="0 0 48 48">
  <path d="M48 24C48 37.255 37.255 48 24 48C10.745 48 0 37.255 0 24C0 10.745 10.745 0 24 0C37.255 0 48 10.745 48 24ZM13.65 21.333V13.169H9.789V34.322H13.646L13.65 26.868C13.646 25.617 13.764 24.672 14 24.032C14.232 23.393 14.598 22.915 15.108 22.595C15.607 22.277 16.181 22.117 16.821 22.117C17.38 22.117 17.843 22.241 18.215 22.492C18.579 22.728 18.8523 23.0806 18.99 23.492C19.137 23.912 19.207 24.9 19.207 26.46V34.322H23.069V25.593C23.069 24.257 23.003 23.272 22.871 22.639C22.738 22.003 22.492 21.426 22.128 20.899C21.766 20.377 21.23 19.947 20.513 19.612C19.798 19.275 19.001 19.105 18.111 19.105C16.383 19.105 14.893 19.851 13.65 21.333ZM28.857 21.333V13.169H25V34.322H28.857V26.868C28.857 25.617 28.975 24.672 29.207 24.032C29.442 23.393 29.81 22.915 30.313 22.595C30.813 22.277 31.387 22.117 32.026 22.117C32.585 22.117 33.052 22.241 33.42 22.492C33.7852 22.7273 34.0593 23.08 34.197 23.492C34.344 23.912 34.417 24.9 34.417 26.46V34.322H38.275V25.593C38.275 24.257 38.209 23.272 38.076 22.639C37.9491 22.0145 37.6963 21.4225 37.333 20.899C36.973 20.377 36.437 19.947 35.723 19.612C35.007 19.275 34.204 19.105 33.317 19.105C31.59 19.105 30.101 19.851 28.857 21.333Z"/>
</svg>